<svg width="1400" height="900" viewBox="0 0 1400 900" fill="none" xmlns="http://www.w3.org/2000/svg">
  <rect width="1400" height="900" fill="#020617"/>
  <rect x="56" y="56" width="1288" height="788" rx="28" fill="#0B1220" stroke="#1E293B"/>
  <rect x="92" y="92" width="760" height="716" rx="24" fill="#111827" stroke="#334155"/>
  <rect x="124" y="124" width="140" height="32" rx="16" fill="#0F172A" stroke="#34D399"/>
  <rect x="124" y="182" width="390" height="60" rx="12" fill="#1F2937"/>
  <rect x="124" y="258" width="420" height="28" rx="10" fill="#1F2937"/>
  <rect x="124" y="316" width="240" height="40" rx="10" fill="#1F2937"/>
  <rect x="380" y="316" width="220" height="40" rx="10" fill="#1F2937"/>
  <rect x="124" y="370" width="220" height="40" rx="10" fill="#1F2937"/>
  <rect x="358" y="370" width="242" height="40" rx="10" fill="#1F2937"/>
  <rect x="640" y="174" width="176" height="540" rx="18" fill="#0F172A" stroke="#22C55E"/>
  <circle cx="728" cy="292" r="66" fill="#22C55E" fill-opacity="0.35"/>
  <rect x="678" y="360" width="100" height="230" rx="50" fill="#22C55E" fill-opacity="0.7"/>
  <rect x="124" y="754" width="320" height="20" rx="10" fill="#1F2937"/>
  <rect x="882" y="92" width="426" height="716" rx="24" fill="#111827" stroke="#334155"/>
  <rect x="914" y="124" width="220" height="42" rx="12" fill="#1F2937"/>
  <rect x="914" y="178" width="188" height="22" rx="8" fill="#1F2937"/>
  <rect x="914" y="226" width="362" height="56" rx="16" fill="#0F172A" stroke="#334155"/>
  <rect x="922" y="234" width="84" height="40" rx="12" fill="#34D399"/>
  <rect x="1018" y="234" width="84" height="40" rx="12" fill="#1F2937"/>
  <rect x="1114" y="234" width="84" height="40" rx="12" fill="#1F2937"/>
  <rect x="1210" y="234" width="58" height="40" rx="12" fill="#1F2937"/>
  <rect x="914" y="308" width="362" height="52" rx="12" fill="#1F2937"/>
  <rect x="914" y="376" width="362" height="52" rx="12" fill="#1F2937"/>
  <rect x="914" y="444" width="362" height="52" rx="12" fill="#1F2937"/>
  <rect x="914" y="528" width="362" height="48" rx="24" fill="#34D399"/>
  <rect x="914" y="740" width="220" height="20" rx="10" fill="#1F2937"/>
</svg>
