<svg width="430" height="932" viewBox="0 0 430 932" fill="none" xmlns="http://www.w3.org/2000/svg">
  <rect width="430" height="932" fill="#020617"/>
  <rect x="16" y="16" width="398" height="900" rx="28" fill="#0B1220" stroke="#1E293B"/>
  <rect x="34" y="34" width="362" height="188" rx="20" fill="#111827" stroke="#334155"/>
  <rect x="52" y="54" width="120" height="26" rx="13" fill="#0F172A" stroke="#34D399"/>
  <rect x="52" y="94" width="210" height="34" rx="10" fill="#1F2937"/>
  <rect x="52" y="142" width="250" height="20" rx="8" fill="#1F2937"/>
  <rect x="52" y="174" width="148" height="30" rx="8" fill="#1F2937"/>
  <rect x="34" y="240" width="362" height="658" rx="20" fill="#111827" stroke="#334155"/>
  <rect x="54" y="264" width="180" height="34" rx="10" fill="#1F2937"/>
  <rect x="54" y="310" width="152" height="18" rx="8" fill="#1F2937"/>
  <rect x="54" y="350" width="322" height="52" rx="14" fill="#0F172A" stroke="#334155"/>
  <rect x="60" y="356" width="70" height="40" rx="10" fill="#34D399"/>
  <rect x="138" y="356" width="70" height="40" rx="10" fill="#1F2937"/>
  <rect x="216" y="356" width="70" height="40" rx="10" fill="#1F2937"/>
  <rect x="294" y="356" width="70" height="40" rx="10" fill="#1F2937"/>
  <rect x="54" y="424" width="322" height="52" rx="12" fill="#1F2937"/>
  <rect x="54" y="492" width="322" height="52" rx="12" fill="#1F2937"/>
  <rect x="54" y="560" width="322" height="52" rx="12" fill="#1F2937"/>
  <rect x="54" y="644" width="322" height="48" rx="24" fill="#34D399"/>
  <rect x="54" y="846" width="174" height="18" rx="9" fill="#1F2937"/>
</svg>
